<svg xmlns="http://www.w3.org/2000/svg">
    <symbol id="search" viewBox="0 0 512 512">
        <g>
            <path d="m304.7,10.9c-108.5,0-196.4,87.9-196.4,196.4 0,46.9 16.4,89.9 43.8,123.7l-135,135c-8,8-8,20.9 0,28.9 8,8 20.9,8 28.9,0l135-135c33.8,27.4 76.8,43.8 123.7,43.8 108.5,0 196.4-87.9 196.4-196.4s-88-196.4-196.4-196.4zm0,352c-85.9,0-155.6-69.7-155.6-155.6 0-85.9 69.7-155.6 155.6-155.6 85.9,0 155.6,69.7 155.6,155.6 5.68434e-14,85.9-69.7,155.6-155.6,155.6z"/>
        </g>
    </symbol>
</svg>

<svg xmlns="http://www.w3.org/2000/svg" viewBox="0 0 32 32" id="save">
    <path d="M23 5H9C7.346 5 6 6.346 6 8v19a1 1 0 0 0 1.614.789L16 21.267l8.386 6.522a.996.996 0 0 0 1.053.109A1 1 0 0 0 26 27V8c0-1.654-1.346-3-3-3zm1 19.956-7.386-5.745a.999.999 0 0 0-1.228-.001L8 24.956V8c0-.551.449-1 1-1h14c.551 0 1 .449 1 1v16.956z"></path>
</svg>


<svg xmlns="http://www.w3.org/2000/svg">

    <symbol id="xxc" viewBox="0 0 20 20">
        <g>
          <path d="M16.293 17.707a1 1 0 001.414-1.414L11.414 10l6.293-6.293a1 1 0 00-1.414-1.414L10 8.586 3.707 2.293a1 1 0 00-1.414 1.414L8.586 10l-6.293 6.293a1 1 0 101.414 1.414L10 11.414l6.293 6.293z"/>
        </g>
    </symbol>
</svg>

